<svg width="298" height="77" viewBox="0 0 298 77" fill="none" xmlns="http://www.w3.org/2000/svg">
<path d="M23.5625 65.8438C20.9792 65.8438 18.375 64.7083 15.75 62.4375L15.2188 65H6.03125L14.7188 24.2812L24.1875 23.0312L16.5 58.9062C17.6667 59.7604 18.8854 60.1875 20.1562 60.1875C21.3854 60.1875 22.5521 59.8021 23.6562 59.0312C24.7812 58.2604 25.8125 57.1667 26.75 55.75C28.4792 53.1458 29.8854 49.5833 30.9688 45.0625C31.9479 40.8333 32.4375 36.4896 32.4375 32.0312C32.4375 27.8646 31.5833 24.7604 29.875 22.7188C28.2917 20.8646 26.0312 19.9375 23.0938 19.9375C20.7188 19.9375 18.5104 20.2917 16.4688 21C14.4271 21.7083 12.6562 22.7292 11.1562 24.0625C9.61458 25.4375 8.42708 27.0938 7.59375 29.0312C6.76042 30.9688 6.34375 33.125 6.34375 35.5C6.34375 36.8333 6.48958 37.8958 6.78125 38.6875C6.86458 38.9583 6.96875 39.1979 7.09375 39.4062C7.17708 39.5521 7.21875 39.6979 7.21875 39.8438C4.98958 39.8438 3.29167 39.3854 2.125 38.4688C0.958333 37.5312 0.375 36.0104 0.375 33.9062C0.375 32.4688 0.65625 31.0521 1.21875 29.6562C1.78125 28.2396 2.59375 26.8958 3.65625 25.625C4.69792 24.375 5.94792 23.2292 7.40625 22.1875C8.88542 21.125 10.5 20.2083 12.25 19.4375C15.9583 17.8125 19.9375 17 24.1875 17C28.125 17 31.4375 17.8646 34.125 19.5938C36.5833 21.1979 38.4167 23.4271 39.625 26.2812C40.7292 28.9896 41.2812 32.0417 41.2812 35.4375C41.2812 37.8333 41.0625 40.2604 40.625 42.7188C40.2083 45.1771 39.6042 47.5521 38.8125 49.8438C38.0208 52.0938 37.0729 54.1979 35.9688 56.1562C34.8854 58.0938 33.6875 59.7812 32.375 61.2188C31.0208 62.6979 29.5938 63.8438 28.0938 64.6562C26.6146 65.4479 25.1042 65.8438 23.5625 65.8438ZM51.5938 65.375C48.4479 65.375 46.0208 64.5833 44.3125 63C42.5 61.3125 41.5938 58.7188 41.5938 55.2188C41.5938 53.9062 41.7292 52.4479 42 50.8438C42.25 49.2396 42.6354 47.6354 43.1562 46.0312C43.7396 44.2396 44.4792 42.5417 45.375 40.9375C46.2917 39.3333 47.3542 37.9167 48.5625 36.6875C51.3542 33.8542 54.7917 32.4375 58.875 32.4375C61.4792 32.4375 63.375 33.0625 64.5625 34.3125C65.4792 35.2917 65.9375 36.7083 65.9375 38.5625C65.9375 40.375 65.5417 42.0833 64.75 43.6875C63.9583 45.2708 62.8646 46.6771 61.4688 47.9062C60.0729 49.1146 58.4896 50.0833 56.7188 50.8125C54.9479 51.5208 53.1146 51.9375 51.2188 52.0625C51.1146 53.1458 51.0625 54 51.0625 54.625C51.0625 56.7083 51.4583 58.1458 52.25 58.9375C52.9375 59.6458 54.0833 60 55.6875 60C58 60 60.1146 59.375 62.0312 58.125C62.8438 57.6042 63.625 56.9896 64.375 56.2812C65.125 55.5521 66 54.6354 67 53.5312H69.1875C67.1667 56.9479 64.8438 59.6667 62.2188 61.6875C58.9896 64.1458 55.4479 65.375 51.5938 65.375ZM51.7188 49C52.9062 48.9167 54.0625 48.5729 55.1875 47.9688C56.3125 47.3646 57.3125 46.5729 58.1875 45.5938C59.0625 44.5938 59.75 43.4792 60.25 42.25C60.75 41 61 39.7292 61 38.4375C61 37.5833 60.875 36.9375 60.625 36.5C60.3958 36.0417 59.9896 35.8125 59.4062 35.8125C58.6354 35.8125 57.8542 36.1875 57.0625 36.9375C56.2917 37.6875 55.5417 38.7188 54.8125 40.0312C54.1458 41.2604 53.5417 42.6562 53 44.2188C52.4583 45.7812 52.0312 47.375 51.7188 49ZM74.2812 65.375C71.8021 65.375 69.875 64.75 68.5 63.5C67.125 62.2292 66.4375 60.3438 66.4375 57.8438C66.4375 56.8021 66.5417 55.7708 66.75 54.75L71.3438 33H80.5625L75.9688 54.75C75.7396 55.7708 75.625 56.5417 75.625 57.0625C75.625 57.7292 75.8021 58.25 76.1562 58.625C76.5104 59 77.0625 59.1875 77.8125 59.1875C78.8125 59.1875 79.7917 58.8333 80.75 58.125C81.7083 57.4167 82.6146 56.4375 83.4688 55.1875C84.2604 54.0417 84.9896 52.7083 85.6562 51.1875C86.3438 49.6667 86.9271 48.0938 87.4062 46.4688C87.8646 44.8854 88.2188 43.3438 88.4688 41.8438C88.7396 40.3229 88.875 38.9792 88.875 37.8125C88.7917 38 88.4896 38.1562 87.9688 38.2812C87.6354 38.3854 87.2604 38.4375 86.8438 38.4375C86.1146 38.4375 85.5417 38.0833 85.125 37.375C84.7292 36.7708 84.5312 36.0417 84.5312 35.1875C84.5312 34.1458 84.8646 33.3125 85.5312 32.6875C86.1979 32.0417 87.1875 31.7188 88.5 31.7188C89.9167 31.7188 90.9688 32.2917 91.6562 33.4375C92.2396 34.3958 92.5312 35.6771 92.5312 37.2812C92.5312 39.0521 92.375 40.9688 92.0625 43.0312C91.7708 45.0938 91.3229 47.125 90.7188 49.125C89.2604 53.875 87.2917 57.6146 84.8125 60.3438C81.8125 63.6979 78.3021 65.375 74.2812 65.375ZM108.719 66.0312C106.302 66.0312 104.229 65.7396 102.5 65.1562C100.771 64.5938 99.3333 63.6979 98.1875 62.4688C97.0208 61.2188 96.1458 59.5938 95.5625 57.5938C95 55.5729 94.7188 53.1354 94.7188 50.2812C94.7188 47.0521 95.0938 43.6875 95.8438 40.1875C96.7188 36.125 97.9688 32.4896 99.5938 29.2812C101.49 25.5521 103.792 22.6458 106.5 20.5625C109.583 18.1875 113.104 17 117.062 17C120.25 17 122.781 17.6667 124.656 19C126.719 20.4583 127.75 22.6458 127.75 25.5625C127.75 27.3958 127.417 28.8021 126.75 29.7812C125.958 30.9062 124.792 31.4688 123.25 31.4688C122.604 31.4688 121.969 31.3542 121.344 31.125C120.74 30.8958 120.167 30.4583 119.625 29.8125C120 29.625 120.365 29.3333 120.719 28.9375C121.073 28.5208 121.385 28.0417 121.656 27.5C122.26 26.2917 122.562 25.0938 122.562 23.9062C122.562 22.7604 122.271 21.8542 121.688 21.1875C121 20.3958 119.99 20 118.656 20C117.51 20 116.375 20.4271 115.25 21.2812C114.146 22.1146 113.083 23.3021 112.062 24.8438C111.083 26.3229 110.177 28.0521 109.344 30.0312C108.51 32.0104 107.802 34.1146 107.219 36.3438C106.635 38.5938 106.177 40.8854 105.844 43.2188C105.51 45.5521 105.344 47.7812 105.344 49.9062C105.344 51.4896 105.458 52.875 105.688 54.0625C105.938 55.25 106.333 56.2604 106.875 57.0938C108.062 58.9479 110.115 59.875 113.031 59.875C115.531 59.875 117.854 59.3229 120 58.2188C122.146 57.0938 123.979 55.5104 125.5 53.4688L126.969 54.125C126.156 56.1667 125.031 57.9583 123.594 59.5C122.177 61.0208 120.573 62.2812 118.781 63.2812C117.135 64.1979 115.438 64.8854 113.688 65.3438C111.938 65.8021 110.281 66.0312 108.719 66.0312ZM134.656 65.25C131.49 65.25 129.042 64.4792 127.312 62.9375C125.375 61.2292 124.406 58.6354 124.406 55.1562C124.406 53.8438 124.542 52.3958 124.812 50.8125C125.083 49.2083 125.5 47.5938 126.062 45.9688C127.354 42.0938 129.198 39 131.594 36.6875C134.49 33.8542 137.938 32.4375 141.938 32.4375C147.417 32.4375 150.156 35.8438 150.156 42.6562V42.7188C150.281 42.7604 150.385 42.7812 150.469 42.7812H150.844C152.26 42.7812 153.938 42.3854 155.875 41.5938C157.583 40.8854 159.198 40 160.719 38.9375L161.281 40.6875C160.031 42 158.417 43.1146 156.438 44.0312C154.479 44.9479 152.312 45.6042 149.938 46C149.688 48.8958 149.125 51.5417 148.25 53.9375C147.375 56.3125 146.25 58.3542 144.875 60.0625C143.521 61.7292 141.969 63.0104 140.219 63.9062C138.469 64.8021 136.615 65.25 134.656 65.25ZM137.219 59.5C137.969 59.5 138.729 59.1667 139.5 58.5C140.292 57.8125 141.031 56.8646 141.719 55.6562C142.406 54.4479 143 53.0312 143.5 51.4062C144 49.7812 144.375 48.0417 144.625 46.1875C144 46.0208 143.552 45.7083 143.281 45.25C143.031 44.7917 142.906 44.2083 142.906 43.5C142.906 42.625 143.083 41.8958 143.438 41.3125C143.792 40.7292 144.281 40.3021 144.906 40.0312C144.823 38.6771 144.604 37.7083 144.25 37.125C144.062 36.8333 143.823 36.625 143.531 36.5C143.26 36.375 142.906 36.3125 142.469 36.3125C141.031 36.3125 139.625 37.3958 138.25 39.5625C136.979 41.5208 135.938 43.9375 135.125 46.8125C134.333 49.625 133.938 52.125 133.938 54.3125C133.938 55.375 133.99 56.2396 134.094 56.9062C134.219 57.5729 134.417 58.0938 134.688 58.4688C134.938 58.8438 135.26 59.1146 135.656 59.2812C136.052 59.4271 136.573 59.5 137.219 59.5ZM176.531 65.375C173.885 65.375 171.927 64.625 170.656 63.125C169.552 61.8333 169 60.1771 169 58.1562C169 57.1979 169.115 56.0833 169.344 54.8125C169.594 53.5417 169.958 51.9062 170.438 49.9062C170.917 47.8646 171.271 46.2396 171.5 45.0312C171.75 43.8021 171.875 42.7396 171.875 41.8438C171.875 39.6562 171.104 38.5625 169.562 38.5625C168.479 38.5625 167.479 39.1354 166.562 40.2812C165.792 41.2604 165.125 42.6562 164.562 44.4688L160.219 65H151L157.781 33H167L166.312 36.3125C167.562 34.9167 168.906 33.9375 170.344 33.375C171.406 32.9583 172.552 32.75 173.781 32.75C175.948 32.75 177.656 33.3125 178.906 34.4375C180.24 35.6667 180.906 37.5104 180.906 39.9688C180.906 41.4479 180.635 43.375 180.094 45.75C179.948 46.4375 179.708 47.4688 179.375 48.8438C178.771 51.1562 178.333 53 178.062 54.375C177.896 55.25 177.812 55.9583 177.812 56.5C177.812 57.3542 178 58.0208 178.375 58.5C178.771 58.9583 179.438 59.1875 180.375 59.1875C181.646 59.1875 182.719 58.6667 183.594 57.625C184.26 56.8333 184.979 55.4688 185.75 53.5312H188.438C186.854 58.2188 184.854 61.5 182.438 63.375C180.729 64.7083 178.76 65.375 176.531 65.375ZM208.844 65.375C206.198 65.375 204.24 64.625 202.969 63.125C201.865 61.8333 201.312 60.1771 201.312 58.1562C201.312 57.1979 201.427 56.0833 201.656 54.8125C201.906 53.5417 202.271 51.9062 202.75 49.9062C203.229 47.8646 203.583 46.2396 203.812 45.0312C204.062 43.8021 204.188 42.7396 204.188 41.8438C204.188 39.6562 203.417 38.5625 201.875 38.5625C200.792 38.5625 199.792 39.1354 198.875 40.2812C198.104 41.2604 197.438 42.6562 196.875 44.4688L192.531 65H183.312L190.094 33H199.312L198.625 36.3125C199.875 34.9167 201.219 33.9375 202.656 33.375C203.719 32.9583 204.865 32.75 206.094 32.75C208.26 32.75 209.969 33.3125 211.219 34.4375C212.552 35.6667 213.219 37.5104 213.219 39.9688C213.219 41.4479 212.948 43.375 212.406 45.75C212.26 46.4375 212.021 47.4688 211.688 48.8438C211.083 51.1562 210.646 53 210.375 54.375C210.208 55.25 210.125 55.9583 210.125 56.5C210.125 57.3542 210.312 58.0208 210.688 58.5C211.083 58.9583 211.75 59.1875 212.688 59.1875C213.958 59.1875 215.031 58.6667 215.906 57.625C216.573 56.8333 217.292 55.4688 218.062 53.5312H220.75C219.167 58.2188 217.167 61.5 214.75 63.375C213.042 64.7083 211.073 65.375 208.844 65.375ZM227.219 65.375C224.073 65.375 221.646 64.5833 219.938 63C218.125 61.3125 217.219 58.7188 217.219 55.2188C217.219 53.9062 217.354 52.4479 217.625 50.8438C217.875 49.2396 218.26 47.6354 218.781 46.0312C219.365 44.2396 220.104 42.5417 221 40.9375C221.917 39.3333 222.979 37.9167 224.188 36.6875C226.979 33.8542 230.417 32.4375 234.5 32.4375C237.104 32.4375 239 33.0625 240.188 34.3125C241.104 35.2917 241.562 36.7083 241.562 38.5625C241.562 40.375 241.167 42.0833 240.375 43.6875C239.583 45.2708 238.49 46.6771 237.094 47.9062C235.698 49.1146 234.115 50.0833 232.344 50.8125C230.573 51.5208 228.74 51.9375 226.844 52.0625C226.74 53.1458 226.688 54 226.688 54.625C226.688 56.7083 227.083 58.1458 227.875 58.9375C228.562 59.6458 229.708 60 231.312 60C233.625 60 235.74 59.375 237.656 58.125C238.469 57.6042 239.25 56.9896 240 56.2812C240.75 55.5521 241.625 54.6354 242.625 53.5312H244.812C242.792 56.9479 240.469 59.6667 237.844 61.6875C234.615 64.1458 231.073 65.375 227.219 65.375ZM227.344 49C228.531 48.9167 229.688 48.5729 230.812 47.9688C231.938 47.3646 232.938 46.5729 233.812 45.5938C234.688 44.5938 235.375 43.4792 235.875 42.25C236.375 41 236.625 39.7292 236.625 38.4375C236.625 37.5833 236.5 36.9375 236.25 36.5C236.021 36.0417 235.615 35.8125 235.031 35.8125C234.26 35.8125 233.479 36.1875 232.688 36.9375C231.917 37.6875 231.167 38.7188 230.438 40.0312C229.771 41.2604 229.167 42.6562 228.625 44.2188C228.083 45.7812 227.656 47.375 227.344 49ZM251.781 65.375C248.635 65.375 246.208 64.5833 244.5 63C242.688 61.3125 241.781 58.7188 241.781 55.2188C241.781 53.9062 241.917 52.4479 242.188 50.8438C242.438 49.2188 242.833 47.6042 243.375 46C244.646 42.1042 246.448 39 248.781 36.6875C251.656 33.8542 255.062 32.4375 259 32.4375C261.562 32.4375 263.458 33.0521 264.688 34.2812C265.646 35.2604 266.125 36.6042 266.125 38.3125C266.125 39.8125 265.792 40.9792 265.125 41.8125C264.5 42.5833 263.698 42.9688 262.719 42.9688C262.01 42.9688 261.26 42.7188 260.469 42.2188C260.99 40.8646 261.25 39.6042 261.25 38.4375C261.25 37.625 261.094 36.9896 260.781 36.5312C260.49 36.0521 260.052 35.8125 259.469 35.8125C258.219 35.8125 256.917 36.9167 255.562 39.125C254.333 41.0833 253.312 43.5729 252.5 46.5938C251.667 49.5521 251.25 52.2292 251.25 54.625C251.25 56.7083 251.646 58.1458 252.438 58.9375C253.125 59.6458 254.271 60 255.875 60C258.188 60 260.302 59.375 262.219 58.125C263.031 57.6042 263.812 56.9896 264.562 56.2812C265.312 55.5521 266.188 54.6354 267.188 53.5312H269.375C267.354 56.9479 265.031 59.6667 262.406 61.6875C259.177 64.1458 255.635 65.375 251.781 65.375ZM273.531 65.375C271.49 65.375 269.875 64.7708 268.688 63.5625C267.354 62.2292 266.688 60.2812 266.688 57.7188C266.688 56.5104 266.854 55.1146 267.188 53.5312L271.031 35.5625H268.906L269.438 33H271.531L273.469 24.1562L282.938 22.875L280.75 33H284.594L284.094 35.5625H280.25L276.156 54.75C275.99 55.2917 275.906 55.9792 275.906 56.8125C275.906 57.6875 276.104 58.3021 276.5 58.6562C276.917 59.0104 277.583 59.1875 278.5 59.1875C279.125 59.1875 279.729 59.0521 280.312 58.7812C280.917 58.4896 281.469 58.0938 281.969 57.5938C282.99 56.5729 283.76 55.2188 284.281 53.5312H286.969C285.823 56.7604 284.385 59.3333 282.656 61.25C281.198 62.8125 279.552 63.9375 277.719 64.625C276.385 65.125 274.99 65.375 273.531 65.375Z" fill="black"/>
</svg>
