<svg width="310" height="37" viewBox="0 0 310 37" fill="none" xmlns="http://www.w3.org/2000/svg">
<path d="M11.2861 31.4087C10.0348 31.4087 8.77344 30.8587 7.50195 29.7588L7.24463 31H2.79443L7.00244 11.2769L11.5889 10.6714L7.86523 28.0483C8.43034 28.4621 9.02067 28.6689 9.63623 28.6689C10.2316 28.6689 10.7967 28.4823 11.3315 28.1089C11.8765 27.7355 12.376 27.2057 12.8301 26.5195C13.6676 25.2581 14.3488 23.5326 14.8735 21.3428C15.3478 19.2943 15.585 17.1903 15.585 15.0308C15.585 13.0125 15.1712 11.509 14.3438 10.52C13.5768 9.62191 12.4819 9.17285 11.0591 9.17285C9.90869 9.17285 8.83903 9.3444 7.8501 9.6875C6.86117 10.0306 6.00342 10.5251 5.27686 11.1709C4.53011 11.8369 3.95492 12.6392 3.55127 13.5776C3.14762 14.5161 2.9458 15.5605 2.9458 16.7109C2.9458 17.3568 3.01644 17.8714 3.15771 18.2549C3.19808 18.3861 3.24854 18.5021 3.30908 18.603C3.34945 18.6737 3.36963 18.7443 3.36963 18.8149C2.28988 18.8149 1.46745 18.5929 0.902344 18.1489C0.33724 17.6948 0.0546875 16.9582 0.0546875 15.939C0.0546875 15.2427 0.190918 14.5565 0.463379 13.8804C0.73584 13.1942 1.12939 12.5433 1.64404 11.9277C2.1486 11.3223 2.75407 10.7673 3.46045 10.2627C4.17692 9.74805 4.95898 9.30404 5.80664 8.93066C7.60286 8.14355 9.53027 7.75 11.5889 7.75C13.4961 7.75 15.1006 8.16878 16.4023 9.00635C17.5931 9.78337 18.4811 10.8631 19.0664 12.2456C19.6012 13.5575 19.8687 15.0358 19.8687 16.6807C19.8687 17.8411 19.7627 19.0168 19.5508 20.2075C19.349 21.3983 19.0563 22.5487 18.6729 23.6587C18.2894 24.7485 17.8302 25.7677 17.2954 26.7163C16.7707 27.6548 16.1904 28.4722 15.5547 29.1685C14.8988 29.8849 14.2075 30.4399 13.481 30.8335C12.7645 31.217 12.0329 31.4087 11.2861 31.4087ZM24.8638 31.1816C23.34 31.1816 22.1644 30.7982 21.3369 30.0312C20.459 29.2139 20.02 27.9575 20.02 26.2622C20.02 25.6265 20.0856 24.9201 20.2168 24.1431C20.3379 23.366 20.5246 22.589 20.7769 21.812C21.0594 20.9442 21.4176 20.1217 21.8516 19.3447C22.2956 18.5677 22.8102 17.8815 23.3955 17.2861C24.7477 15.9137 26.4128 15.2275 28.3906 15.2275C29.652 15.2275 30.5703 15.5303 31.1455 16.1357C31.5895 16.61 31.8115 17.2962 31.8115 18.1943C31.8115 19.0723 31.6198 19.8997 31.2363 20.6768C30.8529 21.4437 30.3231 22.1248 29.647 22.7202C28.9709 23.3055 28.2039 23.7747 27.3462 24.1279C26.4884 24.471 25.6004 24.6729 24.6821 24.7334C24.6317 25.2581 24.6064 25.6719 24.6064 25.9746C24.6064 26.9837 24.7982 27.68 25.1816 28.0635C25.5146 28.4066 26.0697 28.5781 26.8467 28.5781C27.9668 28.5781 28.991 28.2754 29.9194 27.6699C30.313 27.4176 30.6914 27.12 31.0547 26.7769C31.418 26.4237 31.8418 25.9797 32.3262 25.4448H33.3857C32.4069 27.0998 31.2817 28.4167 30.0103 29.3955C28.4461 30.5863 26.7306 31.1816 24.8638 31.1816ZM24.9243 23.25C25.4995 23.2096 26.0596 23.0431 26.6045 22.7505C27.1494 22.4578 27.6338 22.0744 28.0576 21.6001C28.4814 21.1157 28.8145 20.5758 29.0566 19.9805C29.2988 19.375 29.4199 18.7594 29.4199 18.1338C29.4199 17.7201 29.3594 17.4072 29.2383 17.1953C29.1273 16.9733 28.9305 16.8623 28.6479 16.8623C28.2746 16.8623 27.8962 17.0439 27.5127 17.4072C27.1393 17.7705 26.776 18.27 26.4229 18.9058C26.0999 19.5011 25.8073 20.1772 25.5449 20.9341C25.2826 21.6909 25.0757 22.4629 24.9243 23.25ZM35.853 31.1816C34.6522 31.1816 33.7188 30.8789 33.0527 30.2734C32.3867 29.6579 32.0537 28.7446 32.0537 27.5337C32.0537 27.0291 32.1042 26.5296 32.2051 26.0352L34.4302 15.5H38.8955L36.6704 26.0352C36.5594 26.5296 36.5039 26.903 36.5039 27.1553C36.5039 27.4782 36.5897 27.7305 36.7612 27.9121C36.9328 28.0938 37.2002 28.1846 37.5635 28.1846C38.0479 28.1846 38.5221 28.013 38.9863 27.6699C39.4505 27.3268 39.8895 26.8525 40.3032 26.2471C40.6867 25.6921 41.0399 25.0462 41.3628 24.3096C41.6958 23.5729 41.9784 22.811 42.2104 22.0239C42.4325 21.257 42.604 20.5103 42.7251 19.7837C42.8563 19.047 42.9219 18.3962 42.9219 17.8311C42.8815 17.9219 42.7352 17.9976 42.4829 18.0581C42.3215 18.1086 42.1398 18.1338 41.938 18.1338C41.5848 18.1338 41.3073 17.9622 41.1055 17.6191C40.9137 17.3265 40.8179 16.9733 40.8179 16.5596C40.8179 16.055 40.9793 15.6514 41.3022 15.3486C41.6252 15.0358 42.1045 14.8794 42.7402 14.8794C43.4264 14.8794 43.936 15.1569 44.269 15.7119C44.5516 16.1761 44.6929 16.7967 44.6929 17.5737C44.6929 18.4315 44.6172 19.3599 44.4658 20.3589C44.3245 21.3579 44.1076 22.3418 43.8149 23.3105C43.1086 25.6113 42.1549 27.4227 40.9541 28.7446C39.501 30.3693 37.8006 31.1816 35.853 31.1816ZM52.5337 31.4995C51.3631 31.4995 50.359 31.3582 49.5215 31.0757C48.6839 30.8032 47.9876 30.3693 47.4326 29.7739C46.8675 29.1685 46.4437 28.3813 46.1611 27.4126C45.8887 26.4338 45.7524 25.2531 45.7524 23.8706C45.7524 22.3065 45.9341 20.6768 46.2974 18.9814C46.7212 17.0137 47.3267 15.2528 48.1138 13.6987C49.0321 11.8924 50.1471 10.4847 51.459 9.47559C52.9525 8.3252 54.6579 7.75 56.5752 7.75C58.1191 7.75 59.3452 8.07292 60.2534 8.71875C61.2524 9.42513 61.752 10.4847 61.752 11.8975C61.752 12.7855 61.5905 13.4666 61.2676 13.9409C60.8841 14.4858 60.319 14.7583 59.5723 14.7583C59.2594 14.7583 58.9517 14.7028 58.6489 14.5918C58.3563 14.4808 58.0788 14.2689 57.8164 13.9561C57.998 13.8652 58.1746 13.724 58.3462 13.5322C58.5177 13.3304 58.6691 13.0983 58.8003 12.8359C59.0929 12.2507 59.2393 11.6704 59.2393 11.0952C59.2393 10.5402 59.098 10.1012 58.8154 9.77832C58.4824 9.39486 57.993 9.20312 57.3472 9.20312C56.7922 9.20312 56.2422 9.40999 55.6973 9.82373C55.1624 10.2274 54.6478 10.8026 54.1533 11.5493C53.679 12.2658 53.2401 13.1034 52.8364 14.062C52.4328 15.0207 52.0897 16.0399 51.8071 17.1196C51.5246 18.2095 51.3026 19.3195 51.1411 20.4497C50.9797 21.5799 50.8989 22.6597 50.8989 23.689C50.8989 24.4559 50.9544 25.127 51.0654 25.7021C51.1865 26.2773 51.3783 26.7668 51.6406 27.1704C52.2158 28.0685 53.2098 28.5176 54.6226 28.5176C55.8335 28.5176 56.9587 28.2502 57.998 27.7153C59.0374 27.1704 59.9255 26.4035 60.6621 25.4146L61.3735 25.7324C60.98 26.7214 60.4351 27.5892 59.7388 28.3359C59.0526 29.0726 58.2756 29.6831 57.4077 30.1675C56.6105 30.6115 55.7881 30.9445 54.9404 31.1665C54.0928 31.3885 53.2905 31.4995 52.5337 31.4995ZM65.0972 31.1211C63.5633 31.1211 62.3776 30.7477 61.54 30.001C60.6016 29.1735 60.1323 27.9172 60.1323 26.2319C60.1323 25.5962 60.1979 24.8949 60.3291 24.1279C60.4603 23.3509 60.6621 22.5688 60.9346 21.7817C61.5602 19.9048 62.4533 18.4062 63.6138 17.2861C65.0164 15.9137 66.6865 15.2275 68.624 15.2275C71.278 15.2275 72.605 16.8774 72.605 20.1772V20.2075C72.6655 20.2277 72.716 20.2378 72.7563 20.2378H72.938C73.6242 20.2378 74.4365 20.0461 75.375 19.6626C76.2025 19.3195 76.9845 18.8906 77.7212 18.376L77.9937 19.2236C77.3882 19.8594 76.6061 20.3993 75.6475 20.8433C74.6989 21.2873 73.6494 21.6051 72.499 21.7969C72.3779 23.1995 72.1055 24.4811 71.6816 25.6416C71.2578 26.792 70.7129 27.7809 70.0469 28.6084C69.391 29.4157 68.6392 30.0363 67.7915 30.4702C66.9438 30.9041 66.0457 31.1211 65.0972 31.1211ZM66.3384 28.3359C66.7017 28.3359 67.07 28.1745 67.4434 27.8516C67.8268 27.5186 68.1851 27.0594 68.5181 26.4741C68.8511 25.8888 69.1387 25.2026 69.3809 24.4155C69.623 23.6284 69.8047 22.7858 69.9258 21.8877C69.623 21.807 69.4061 21.6556 69.2749 21.4336C69.1538 21.2116 69.0933 20.929 69.0933 20.5859C69.0933 20.1621 69.179 19.8089 69.3506 19.5264C69.5221 19.2438 69.7593 19.0369 70.062 18.9058C70.0216 18.2498 69.9157 17.7806 69.7441 17.498C69.6533 17.3568 69.5373 17.2559 69.396 17.1953C69.2648 17.1348 69.0933 17.1045 68.8813 17.1045C68.1851 17.1045 67.5039 17.6292 66.8379 18.6787C66.2223 19.6273 65.7178 20.7979 65.3242 22.1904C64.9408 23.5527 64.749 24.7637 64.749 25.8232C64.749 26.3379 64.7743 26.7567 64.8247 27.0796C64.8853 27.4025 64.9811 27.6548 65.1123 27.8364C65.2334 28.0181 65.3898 28.1493 65.5815 28.23C65.7733 28.3006 66.0256 28.3359 66.3384 28.3359ZM85.3804 31.1816C84.0988 31.1816 83.1502 30.8184 82.5347 30.0918C81.9998 29.4661 81.7324 28.6639 81.7324 27.6851C81.7324 27.2209 81.7879 26.681 81.8989 26.0654C82.02 25.4499 82.1966 24.6577 82.4287 23.689C82.6608 22.7 82.8324 21.9129 82.9434 21.3276C83.0645 20.7323 83.125 20.2176 83.125 19.7837C83.125 18.7241 82.7516 18.1943 82.0049 18.1943C81.4801 18.1943 80.9958 18.4718 80.5518 19.0269C80.1784 19.5011 79.8555 20.1772 79.583 21.0552L77.479 31H73.0137L76.2983 15.5H80.7637L80.4307 17.1045C81.0361 16.4284 81.687 15.9541 82.3833 15.6816C82.8979 15.4798 83.453 15.3789 84.0483 15.3789C85.0978 15.3789 85.9253 15.6514 86.5308 16.1963C87.1766 16.7917 87.4995 17.6847 87.4995 18.8755C87.4995 19.592 87.3683 20.5254 87.106 21.6758C87.0353 22.0088 86.9193 22.5083 86.7578 23.1743C86.4652 24.2944 86.2533 25.1875 86.1221 25.8535C86.0413 26.2773 86.001 26.6204 86.001 26.8828C86.001 27.2965 86.0918 27.6195 86.2734 27.8516C86.4652 28.0736 86.7881 28.1846 87.2422 28.1846C87.8577 28.1846 88.3774 27.9323 88.8013 27.4277C89.1242 27.0443 89.4723 26.3833 89.8457 25.4448H91.1475C90.3805 27.7153 89.4118 29.3047 88.2412 30.2129C87.4137 30.8587 86.4601 31.1816 85.3804 31.1816ZM101.032 31.1816C99.7502 31.1816 98.8016 30.8184 98.186 30.0918C97.6512 29.4661 97.3838 28.6639 97.3838 27.6851C97.3838 27.2209 97.4393 26.681 97.5503 26.0654C97.6714 25.4499 97.848 24.6577 98.0801 23.689C98.3122 22.7 98.4837 21.9129 98.5947 21.3276C98.7158 20.7323 98.7764 20.2176 98.7764 19.7837C98.7764 18.7241 98.403 18.1943 97.6562 18.1943C97.1315 18.1943 96.6471 18.4718 96.2031 19.0269C95.8298 19.5011 95.5068 20.1772 95.2344 21.0552L93.1304 31H88.665L91.9497 15.5H96.415L96.082 17.1045C96.6875 16.4284 97.3384 15.9541 98.0347 15.6816C98.5493 15.4798 99.1043 15.3789 99.6997 15.3789C100.749 15.3789 101.577 15.6514 102.182 16.1963C102.828 16.7917 103.151 17.6847 103.151 18.8755C103.151 19.592 103.02 20.5254 102.757 21.6758C102.687 22.0088 102.571 22.5083 102.409 23.1743C102.117 24.2944 101.905 25.1875 101.773 25.8535C101.693 26.2773 101.652 26.6204 101.652 26.8828C101.652 27.2965 101.743 27.6195 101.925 27.8516C102.117 28.0736 102.439 28.1846 102.894 28.1846C103.509 28.1846 104.029 27.9323 104.453 27.4277C104.776 27.0443 105.124 26.3833 105.497 25.4448H106.799C106.032 27.7153 105.063 29.3047 103.893 30.2129C103.065 30.8587 102.111 31.1816 101.032 31.1816ZM109.932 31.1816C108.408 31.1816 107.233 30.7982 106.405 30.0312C105.527 29.2139 105.088 27.9575 105.088 26.2622C105.088 25.6265 105.154 24.9201 105.285 24.1431C105.406 23.366 105.593 22.589 105.845 21.812C106.128 20.9442 106.486 20.1217 106.92 19.3447C107.364 18.5677 107.879 17.8815 108.464 17.2861C109.816 15.9137 111.481 15.2275 113.459 15.2275C114.72 15.2275 115.639 15.5303 116.214 16.1357C116.658 16.61 116.88 17.2962 116.88 18.1943C116.88 19.0723 116.688 19.8997 116.305 20.6768C115.921 21.4437 115.391 22.1248 114.715 22.7202C114.039 23.3055 113.272 23.7747 112.415 24.1279C111.557 24.471 110.669 24.6729 109.75 24.7334C109.7 25.2581 109.675 25.6719 109.675 25.9746C109.675 26.9837 109.867 27.68 110.25 28.0635C110.583 28.4066 111.138 28.5781 111.915 28.5781C113.035 28.5781 114.059 28.2754 114.988 27.6699C115.381 27.4176 115.76 27.12 116.123 26.7769C116.486 26.4237 116.91 25.9797 117.395 25.4448H118.454C117.475 27.0998 116.35 28.4167 115.079 29.3955C113.514 30.5863 111.799 31.1816 109.932 31.1816ZM109.993 23.25C110.568 23.2096 111.128 23.0431 111.673 22.7505C112.218 22.4578 112.702 22.0744 113.126 21.6001C113.55 21.1157 113.883 20.5758 114.125 19.9805C114.367 19.375 114.488 18.7594 114.488 18.1338C114.488 17.7201 114.428 17.4072 114.307 17.1953C114.196 16.9733 113.999 16.8623 113.716 16.8623C113.343 16.8623 112.965 17.0439 112.581 17.4072C112.208 17.7705 111.844 18.27 111.491 18.9058C111.168 19.5011 110.876 20.1772 110.613 20.9341C110.351 21.6909 110.144 22.4629 109.993 23.25ZM121.83 31.1816C120.306 31.1816 119.13 30.7982 118.303 30.0312C117.425 29.2139 116.986 27.9575 116.986 26.2622C116.986 25.6265 117.051 24.9201 117.183 24.1431C117.304 23.356 117.495 22.5739 117.758 21.7969C118.373 19.9098 119.246 18.4062 120.376 17.2861C121.769 15.9137 123.419 15.2275 125.326 15.2275C126.567 15.2275 127.486 15.5252 128.081 16.1206C128.545 16.5949 128.777 17.2458 128.777 18.0732C128.777 18.7998 128.616 19.3649 128.293 19.7686C127.99 20.1419 127.602 20.3286 127.127 20.3286C126.784 20.3286 126.421 20.2075 126.038 19.9653C126.29 19.3094 126.416 18.6989 126.416 18.1338C126.416 17.7402 126.34 17.4325 126.189 17.2104C126.048 16.9784 125.836 16.8623 125.553 16.8623C124.948 16.8623 124.317 17.3971 123.661 18.4668C123.066 19.4154 122.571 20.6213 122.178 22.0845C121.774 23.5174 121.572 24.8141 121.572 25.9746C121.572 26.9837 121.764 27.68 122.147 28.0635C122.48 28.4066 123.035 28.5781 123.812 28.5781C124.933 28.5781 125.957 28.2754 126.885 27.6699C127.279 27.4176 127.657 27.12 128.021 26.7769C128.384 26.4237 128.808 25.9797 129.292 25.4448H130.352C129.373 27.0998 128.248 28.4167 126.976 29.3955C125.412 30.5863 123.696 31.1816 121.83 31.1816ZM132.365 31.1816C131.376 31.1816 130.594 30.889 130.019 30.3037C129.373 29.6579 129.05 28.7144 129.05 27.4731C129.05 26.8879 129.131 26.2118 129.292 25.4448L131.154 16.7412H130.125L130.382 15.5H131.396L132.334 11.2163L136.921 10.5957L135.861 15.5H137.723L137.481 16.7412H135.619L133.636 26.0352C133.556 26.2975 133.515 26.6305 133.515 27.0342C133.515 27.458 133.611 27.7557 133.803 27.9272C134.005 28.0988 134.327 28.1846 134.771 28.1846C135.074 28.1846 135.367 28.119 135.649 27.9878C135.942 27.8465 136.209 27.6548 136.452 27.4126C136.946 26.9181 137.319 26.2622 137.572 25.4448H138.874C138.319 27.009 137.622 28.2552 136.785 29.1836C136.078 29.9404 135.281 30.4854 134.393 30.8184C133.747 31.0605 133.071 31.1816 132.365 31.1816Z" fill="black"/>
</svg>
