<svg width="187" height="27" viewBox="0 0 187 27" fill="none" xmlns="http://www.w3.org/2000/svg">
<path d="M13.9375 25.8225C13.1302 25.8225 12.3164 25.4677 11.4961 24.7581L11.3301 25.5588H8.45898L11.1738 12.8342L14.1328 12.4436L11.7305 23.6545C12.0951 23.9215 12.4759 24.0549 12.873 24.0549C13.2572 24.0549 13.6217 23.9345 13.9668 23.6936C14.3184 23.4527 14.6406 23.1109 14.9336 22.6682C15.474 21.8544 15.9134 20.7411 16.252 19.3284C16.5579 18.0068 16.7109 16.6493 16.7109 15.2561C16.7109 13.954 16.444 12.984 15.9102 12.3459C15.4154 11.7665 14.709 11.4768 13.791 11.4768C13.0488 11.4768 12.3587 11.5875 11.7207 11.8088C11.0827 12.0302 10.5293 12.3492 10.0605 12.7659C9.57878 13.1956 9.20768 13.7131 8.94727 14.3186C8.68685 14.9241 8.55664 15.5979 8.55664 16.3401C8.55664 16.7568 8.60221 17.0888 8.69336 17.3362C8.7194 17.4208 8.75195 17.4957 8.79102 17.5608C8.81706 17.6064 8.83008 17.6519 8.83008 17.6975C8.13346 17.6975 7.60286 17.5543 7.23828 17.2678C6.8737 16.9749 6.69141 16.4996 6.69141 15.842C6.69141 15.3928 6.7793 14.9501 6.95508 14.5139C7.13086 14.0712 7.38477 13.6513 7.7168 13.2542C8.04232 12.8635 8.43294 12.5055 8.88867 12.1799C9.35091 11.8479 9.85547 11.5614 10.4023 11.3206C11.5612 10.8127 12.8047 10.5588 14.1328 10.5588C15.3633 10.5588 16.3984 10.829 17.2383 11.3694C18.0065 11.8707 18.5794 12.5673 18.957 13.4592C19.3021 14.3056 19.4746 15.2594 19.4746 16.3206C19.4746 17.0693 19.4062 17.8277 19.2695 18.5959C19.1393 19.3642 18.9505 20.1064 18.7031 20.8225C18.4557 21.5256 18.1595 22.1832 17.8145 22.7952C17.4759 23.4006 17.1016 23.928 16.6914 24.3772C16.2682 24.8394 15.8223 25.1975 15.3535 25.4514C14.8913 25.6988 14.4193 25.8225 13.9375 25.8225ZM22.6973 25.676C21.7142 25.676 20.9557 25.4286 20.4219 24.9338C19.8555 24.4065 19.5723 23.5959 19.5723 22.5022C19.5723 22.092 19.6146 21.6363 19.6992 21.135C19.7773 20.6337 19.8978 20.1324 20.0605 19.6311C20.2428 19.0712 20.474 18.5406 20.7539 18.0393C21.0404 17.538 21.3724 17.0953 21.75 16.7112C22.6224 15.8258 23.6966 15.3831 24.9727 15.3831C25.7865 15.3831 26.3789 15.5784 26.75 15.969C27.0365 16.275 27.1797 16.7177 27.1797 17.2971C27.1797 17.8635 27.056 18.3974 26.8086 18.8987C26.5612 19.3935 26.2194 19.8329 25.7832 20.217C25.347 20.5946 24.8522 20.8974 24.2988 21.1252C23.7454 21.3466 23.1725 21.4768 22.5801 21.5159C22.5475 21.8544 22.5312 22.1213 22.5312 22.3167C22.5312 22.9677 22.6549 23.4169 22.9023 23.6643C23.1172 23.8857 23.4753 23.9963 23.9766 23.9963C24.6992 23.9963 25.36 23.801 25.959 23.4104C26.2129 23.2476 26.457 23.0556 26.6914 22.8342C26.9258 22.6064 27.1992 22.3199 27.5117 21.9749H28.1953C27.5638 23.0426 26.8379 23.8922 26.0176 24.5237C25.0085 25.2919 23.9017 25.676 22.6973 25.676ZM22.7363 20.5588C23.1074 20.5328 23.4688 20.4254 23.8203 20.2366C24.1719 20.0478 24.4844 19.8004 24.7578 19.4944C25.0312 19.1819 25.2461 18.8336 25.4023 18.4495C25.5586 18.0588 25.6367 17.6617 25.6367 17.2581C25.6367 16.9911 25.5977 16.7893 25.5195 16.6526C25.4479 16.5094 25.321 16.4377 25.1387 16.4377C24.8978 16.4377 24.6536 16.5549 24.4062 16.7893C24.1654 17.0237 23.931 17.3459 23.7031 17.7561C23.4948 18.1402 23.306 18.5764 23.1367 19.0647C22.9674 19.553 22.834 20.051 22.7363 20.5588ZM29.7871 25.676C29.0124 25.676 28.4102 25.4807 27.9805 25.0901C27.5508 24.693 27.3359 24.1038 27.3359 23.3225C27.3359 22.997 27.3685 22.6747 27.4336 22.3557L28.8691 15.5588H31.75L30.3145 22.3557C30.2428 22.6747 30.207 22.9156 30.207 23.0784C30.207 23.2867 30.2624 23.4495 30.373 23.5667C30.4837 23.6838 30.6562 23.7424 30.8906 23.7424C31.2031 23.7424 31.5091 23.6318 31.8086 23.4104C32.1081 23.189 32.3913 22.8831 32.6582 22.4924C32.9056 22.1344 33.1335 21.7177 33.3418 21.2424C33.5566 20.7672 33.7389 20.2756 33.8887 19.7678C34.0319 19.273 34.1426 18.7913 34.2207 18.3225C34.3053 17.8472 34.3477 17.4273 34.3477 17.0627C34.3216 17.1213 34.2272 17.1702 34.0645 17.2092C33.9603 17.2418 33.8431 17.2581 33.7129 17.2581C33.485 17.2581 33.306 17.1474 33.1758 16.926C33.0521 16.7372 32.9902 16.5094 32.9902 16.2424C32.9902 15.9169 33.0944 15.6565 33.3027 15.4612C33.5111 15.2594 33.8203 15.1584 34.2305 15.1584C34.6732 15.1584 35.002 15.3375 35.2168 15.6956C35.3991 15.995 35.4902 16.3954 35.4902 16.8967C35.4902 17.4501 35.4414 18.0491 35.3438 18.6936C35.2526 19.3381 35.1126 19.9729 34.9238 20.5979C34.4681 22.0823 33.8529 23.2509 33.0781 24.1038C32.1406 25.1519 31.0436 25.676 29.7871 25.676ZM40.5488 25.8811C39.7936 25.8811 39.1458 25.79 38.6055 25.6077C38.0651 25.4319 37.6159 25.1519 37.2578 24.7678C36.8932 24.3772 36.6198 23.8694 36.4375 23.2444C36.2617 22.6129 36.1738 21.8512 36.1738 20.9592C36.1738 19.9501 36.291 18.8987 36.5254 17.8049C36.7988 16.5354 37.1895 15.3993 37.6973 14.3967C38.2897 13.2314 39.0091 12.3232 39.8555 11.6721C40.819 10.9299 41.9193 10.5588 43.1562 10.5588C44.1523 10.5588 44.9434 10.7672 45.5293 11.1838C46.1738 11.6396 46.4961 12.3232 46.4961 13.2346C46.4961 13.8075 46.3919 14.247 46.1836 14.553C45.9362 14.9045 45.5716 15.0803 45.0898 15.0803C44.888 15.0803 44.6895 15.0445 44.4941 14.9729C44.3053 14.9013 44.1263 14.7646 43.957 14.5627C44.0742 14.5042 44.1882 14.413 44.2988 14.2893C44.4095 14.1591 44.5072 14.0094 44.5918 13.8401C44.7806 13.4625 44.875 13.0881 44.875 12.717C44.875 12.359 44.7839 12.0758 44.6016 11.8674C44.3867 11.62 44.071 11.4963 43.6543 11.4963C43.2962 11.4963 42.9414 11.6298 42.5898 11.8967C42.2448 12.1571 41.9128 12.5282 41.5938 13.01C41.2878 13.4722 41.0046 14.0126 40.7441 14.6311C40.4837 15.2496 40.2624 15.9071 40.0801 16.6038C39.8978 17.3069 39.7546 18.023 39.6504 18.7522C39.5462 19.4814 39.4941 20.178 39.4941 20.842C39.4941 21.3368 39.5299 21.7698 39.6016 22.1409C39.6797 22.512 39.8034 22.8277 39.9727 23.0881C40.3438 23.6676 40.985 23.9573 41.8965 23.9573C42.6777 23.9573 43.4036 23.7847 44.0742 23.4397C44.7448 23.0881 45.3177 22.5933 45.793 21.9553L46.252 22.1604C45.998 22.7984 45.6465 23.3583 45.1973 23.8401C44.7546 24.3153 44.2533 24.7092 43.6934 25.0217C43.179 25.3082 42.6484 25.523 42.1016 25.6663C41.5547 25.8095 41.0371 25.8811 40.5488 25.8811ZM48.6543 25.637C47.6647 25.637 46.8997 25.3961 46.3594 24.9143C45.7539 24.3805 45.4512 23.5699 45.4512 22.4827C45.4512 22.0725 45.4935 21.62 45.5781 21.1252C45.6628 20.6239 45.793 20.1194 45.9688 19.6116C46.3724 18.4006 46.9486 17.4338 47.6973 16.7112C48.6022 15.8258 49.6797 15.3831 50.9297 15.3831C52.6419 15.3831 53.498 16.4475 53.498 18.5764V18.5959C53.5371 18.609 53.5697 18.6155 53.5957 18.6155H53.7129C54.1556 18.6155 54.6797 18.4918 55.2852 18.2444C55.819 18.023 56.3236 17.7463 56.7988 17.4143L56.9746 17.9612C56.584 18.3713 56.0794 18.7196 55.4609 19.0061C54.849 19.2926 54.1719 19.4976 53.4297 19.6213C53.3516 20.5263 53.1758 21.3531 52.9023 22.1018C52.6289 22.844 52.2773 23.482 51.8477 24.0159C51.4245 24.5367 50.9395 24.9371 50.3926 25.217C49.8457 25.497 49.2663 25.637 48.6543 25.637ZM49.4551 23.8401C49.6895 23.8401 49.9271 23.7359 50.168 23.5276C50.4154 23.3127 50.6465 23.0165 50.8613 22.6389C51.0762 22.2613 51.2617 21.8186 51.418 21.3108C51.5742 20.803 51.6914 20.2594 51.7695 19.6799C51.5742 19.6278 51.4342 19.5302 51.3496 19.387C51.2715 19.2437 51.2324 19.0614 51.2324 18.8401C51.2324 18.5667 51.2878 18.3388 51.3984 18.1565C51.5091 17.9742 51.6621 17.8407 51.8574 17.7561C51.8314 17.3329 51.763 17.0302 51.6523 16.8479C51.5938 16.7568 51.5189 16.6917 51.4277 16.6526C51.3431 16.6135 51.2324 16.594 51.0957 16.594C50.6465 16.594 50.207 16.9325 49.7773 17.6096C49.3802 18.2216 49.0547 18.9768 48.8008 19.8752C48.5534 20.7542 48.4297 21.5354 48.4297 22.219C48.4297 22.551 48.446 22.8212 48.4785 23.0295C48.5176 23.2379 48.5794 23.4006 48.6641 23.5178C48.7422 23.635 48.8431 23.7196 48.9668 23.7717C49.0905 23.8173 49.2533 23.8401 49.4551 23.8401ZM61.7402 25.676C60.9134 25.676 60.3014 25.4417 59.9043 24.9729C59.5592 24.5693 59.3867 24.0517 59.3867 23.4202C59.3867 23.1207 59.4225 22.7724 59.4941 22.3752C59.5723 21.9781 59.6862 21.467 59.8359 20.842C59.9857 20.204 60.0964 19.6962 60.168 19.3186C60.2461 18.9345 60.2852 18.6025 60.2852 18.3225C60.2852 17.6389 60.0443 17.2971 59.5625 17.2971C59.224 17.2971 58.9115 17.4762 58.625 17.8342C58.3841 18.1402 58.1758 18.5764 58 19.1428L56.6426 25.5588H53.7617L55.8809 15.5588H58.7617L58.5469 16.594C58.9375 16.1578 59.3574 15.8518 59.8066 15.676C60.1387 15.5458 60.4967 15.4807 60.8809 15.4807C61.5579 15.4807 62.0918 15.6565 62.4824 16.0081C62.8991 16.3922 63.1074 16.9683 63.1074 17.7366C63.1074 18.1988 63.0228 18.801 62.8535 19.5432C62.8079 19.7581 62.7331 20.0803 62.6289 20.51C62.4401 21.2327 62.3034 21.8088 62.2188 22.2385C62.1667 22.512 62.1406 22.7333 62.1406 22.9026C62.1406 23.1695 62.1992 23.3778 62.3164 23.5276C62.4401 23.6708 62.6484 23.7424 62.9414 23.7424C63.3385 23.7424 63.6738 23.5797 63.9473 23.2542C64.1556 23.0068 64.3802 22.5803 64.6211 21.9749H65.4609C64.9661 23.4397 64.3411 24.4651 63.5859 25.051C63.0521 25.4677 62.4368 25.676 61.7402 25.676Z" fill="black"/>
</svg>
