<svg width="20" height="20" viewBox="0 0 20 20" fill="none" xmlns="http://www.w3.org/2000/svg">
<path d="M9.99999 16.4583C9.83429 16.4582 9.67542 16.3922 9.55832 16.275L3.91666 10.6167C3.15321 9.83779 2.72559 8.79064 2.72559 7.7C2.72559 6.60936 3.15321 5.5622 3.91666 4.78333C4.69023 4.00983 5.73938 3.5753 6.83332 3.5753C7.92727 3.5753 8.97641 4.00983 9.74999 4.78333L9.99999 5L10.2333 4.76666C10.6158 4.38 11.0714 4.07329 11.5736 3.86441C12.0757 3.65553 12.6144 3.54865 13.1583 3.55C13.7016 3.54756 14.24 3.65313 14.7421 3.86057C15.2442 4.068 15.7002 4.37317 16.0833 4.75833C16.8468 5.5372 17.2744 6.58436 17.2744 7.675C17.2744 8.76564 16.8468 9.8128 16.0833 10.5917L10.4417 16.25C10.3858 16.3126 10.3179 16.3633 10.242 16.3991C10.1661 16.4349 10.0838 16.455 9.99999 16.4583ZM6.84166 4.79166C6.46318 4.78891 6.08791 4.86113 5.73749 5.00416C5.38707 5.14719 5.06844 5.35819 4.79999 5.625C4.25905 6.16846 3.95537 6.90404 3.95537 7.67083C3.95537 8.43762 4.25905 9.1732 4.79999 9.71667L9.99999 14.95L15.1917 9.73333C15.4605 9.46478 15.6738 9.14586 15.8193 8.79482C15.9648 8.44378 16.0397 8.0675 16.0397 7.6875C16.0397 7.30749 15.9648 6.93121 15.8193 6.58018C15.6738 6.22914 15.4605 5.91022 15.1917 5.64166C14.9253 5.37436 14.6082 5.16295 14.2591 5.01985C13.9099 4.87674 13.5357 4.80483 13.1583 4.80833C12.7798 4.80558 12.4046 4.8778 12.0542 5.02083C11.7037 5.16385 11.3851 5.37486 11.1167 5.64166L10.4417 6.31666C10.3224 6.42979 10.1643 6.49286 9.99999 6.49286C9.83564 6.49286 9.67755 6.42979 9.55832 6.31666L8.88332 5.64166C8.61625 5.37185 8.29824 5.15777 7.94776 5.01186C7.59728 4.86594 7.2213 4.79109 6.84166 4.79166Z" fill="black"/>
</svg>
